<svg xmlns="http://www.w3.org/2000/svg" viewBox="0 0 1280 640" width="1280" height="640">
  <defs>
    <linearGradient id="bg" x1="0" y1="0" x2="1" y2="1">
      <stop offset="0%" stop-color="#0d1117"/>
      <stop offset="100%" stop-color="#161b22"/>
    </linearGradient>
    <linearGradient id="accent" x1="0" y1="0" x2="1" y2="0">
      <stop offset="0%" stop-color="#58a6ff"/>
      <stop offset="100%" stop-color="#7c5cff"/>
    </linearGradient>
  </defs>

  <rect width="1280" height="640" fill="url(#bg)"/>

  <!-- subtle dot grid -->
  <g fill="#21262d" opacity="0.6">
    <circle cx="100" cy="100" r="1"/>
    <circle cx="200" cy="100" r="1"/>
    <circle cx="300" cy="100" r="1"/>
    <circle cx="400" cy="100" r="1"/>
    <circle cx="500" cy="100" r="1"/>
    <circle cx="100" cy="200" r="1"/>
    <circle cx="200" cy="200" r="1"/>
    <circle cx="300" cy="200" r="1"/>
    <circle cx="100" cy="300" r="1"/>
    <circle cx="200" cy="300" r="1"/>
    <circle cx="1180" cy="100" r="1"/>
    <circle cx="1080" cy="100" r="1"/>
    <circle cx="1180" cy="200" r="1"/>
    <circle cx="1080" cy="540" r="1"/>
    <circle cx="1180" cy="540" r="1"/>
  </g>

  <!-- Title -->
  <text x="80" y="180" font-family="system-ui, -apple-system, 'Segoe UI', sans-serif" font-size="84" font-weight="800" fill="#f0f6fc">
    Software Office
  </text>

  <!-- Subtitle -->
  <text x="80" y="240" font-family="system-ui, sans-serif" font-size="32" font-weight="400" fill="#8b949e">
    Turn Claude Code into a small, organized software office.
  </text>

  <!-- Stats row -->
  <g font-family="system-ui, sans-serif">
    <!-- 7 agents -->
    <rect x="80" y="300" width="180" height="100" rx="14" fill="#161b22" stroke="#30363d" stroke-width="1"/>
    <text x="170" y="345" text-anchor="middle" font-size="42" font-weight="700" fill="url(#accent)">7</text>
    <text x="170" y="380" text-anchor="middle" font-size="18" fill="#8b949e">agents</text>

    <!-- 9 commands -->
    <rect x="280" y="300" width="180" height="100" rx="14" fill="#161b22" stroke="#30363d" stroke-width="1"/>
    <text x="370" y="345" text-anchor="middle" font-size="42" font-weight="700" fill="url(#accent)">9</text>
    <text x="370" y="380" text-anchor="middle" font-size="18" fill="#8b949e">commands</text>

    <!-- Single-file -->
    <rect x="480" y="300" width="280" height="100" rx="14" fill="#161b22" stroke="#30363d" stroke-width="1"/>
    <text x="620" y="345" text-anchor="middle" font-size="32" font-weight="700" fill="#3fb950">1 file</text>
    <text x="620" y="380" text-anchor="middle" font-size="18" fill="#8b949e">cross-platform installer</text>

    <!-- Linear flow -->
    <rect x="780" y="300" width="220" height="100" rx="14" fill="#161b22" stroke="#30363d" stroke-width="1"/>
    <text x="890" y="345" text-anchor="middle" font-size="32" font-weight="700" fill="#d29922">linear flow</text>
    <text x="890" y="380" text-anchor="middle" font-size="18" fill="#8b949e">no sprint, no retro</text>
  </g>

  <!-- Tagline -->
  <text x="80" y="465" font-family="system-ui, sans-serif" font-size="24" fill="#8b949e">
    researcher → qa → tech-lead → developer. cto on-call. /takeover for existing projects.
  </text>

  <!-- Workflow at bottom -->
  <g font-family="ui-monospace, 'SF Mono', Consolas, monospace" font-size="20" fill="#8b949e">
    <text x="80" y="540">/start</text>
    <text x="180" y="540">→</text>
    <text x="220" y="540">/feature</text>
    <text x="360" y="540">→</text>
    <text x="400" y="540">/bug-fix</text>
    <text x="540" y="540">→</text>
    <text x="580" y="540">/security-review</text>
    <text x="800" y="540">→</text>
    <text x="840" y="540">/release-check</text>
  </g>

  <!-- Repo URL -->
  <text x="80" y="600" font-family="ui-monospace, monospace" font-size="22" fill="#58a6ff">
    github.com/ilkerprdal/Claude-Software-Office
  </text>

  <!-- corner badge -->
  <g transform="translate(1120, 50)">
    <rect x="0" y="0" width="120" height="36" rx="18" fill="#1f6feb" opacity="0.15" stroke="#1f6feb" stroke-width="1"/>
    <text x="60" y="23" text-anchor="middle" font-family="system-ui, sans-serif" font-size="14" font-weight="600" fill="#58a6ff">v0.1.0</text>
  </g>
</svg>
